<svg width="23" height="36" viewBox="0 0 23 36" fill="none" xmlns="http://www.w3.org/2000/svg">
<g id="backpack.fill">
<rect width="21.8571" height="35.2143" transform="translate(0.800781 0.28418) rotate(-0.179797)" fill="#FFF500" fill-opacity="0.06"/>
<g id="Group">
<path id="Vector" d="M7.77649 34.0875L15.8945 34.062C20.5181 34.0475 22.796 31.6667 22.7412 26.9194C22.671 21.498 22.6321 17.5599 22.4899 14.6067C22.0774 5.92239 19.6646 3.38093 11.7459 3.40578C3.8272 3.43063 1.41708 5.98722 1.05903 14.6739C0.935439 17.628 0.921224 21.5662 0.885092 26.988C0.860131 31.7355 3.15283 34.102 7.77649 34.0875ZM7.37438 28.7345C6.23175 28.7381 5.49864 27.9851 5.49508 26.8523L5.47324 19.893C5.46964 18.7467 6.19802 17.989 7.34065 17.9855L16.2426 17.9575C17.3719 17.954 18.105 18.707 18.1086 19.8534L18.1304 26.8126C18.134 27.9454 17.4056 28.703 16.2763 28.7066L7.37438 28.7345ZM5.48357 23.1839L18.1189 23.1442L18.1139 21.5392L5.47853 21.5788L5.48357 23.1839ZM11.736 0.249864C9.18498 0.25787 7.39683 2.01679 7.40432 4.40395L9.2777 4.39807C9.2736 3.08985 10.2804 2.15609 11.7419 2.1515C13.1901 2.14696 14.2162 3.07434 14.2203 4.38256L16.0936 4.37669C16.0861 1.98952 14.2737 0.241901 11.736 0.249864Z" fill="#FFF500"/>
</g>
</g>
</svg>
