<svg width="24" height="29" viewBox="0 0 24 29" fill="none" xmlns="http://www.w3.org/2000/svg">
<g id="bolt.shield.fill">
<g id="Group">
<path id="Vector" d="M12.1077 28.8618C12.3354 28.8611 12.6908 28.7745 13.046 28.5885C21.1294 24.3225 23.7269 22.1941 23.7109 17.0856L23.6772 6.35633C23.6726 4.89065 23.0449 4.42303 21.8482 3.92873C20.1811 3.25093 14.8531 1.33237 13.2006 0.76836C12.816 0.641497 12.4173 0.571598 12.0189 0.572848C11.6205 0.574098 11.2223 0.660728 10.8527 0.775728C9.1895 1.32169 3.87374 3.31633 2.21095 3.99036C1.0314 4.47788 0.39257 4.96371 0.39717 6.42938L0.430839 17.1587C0.44687 22.2672 3.19913 24.1369 11.1677 28.5944C11.5383 28.7925 11.88 28.8625 12.1077 28.8618ZM5.64712 15.207C5.64658 15.0363 5.73129 14.8225 5.88724 14.6371L13.8954 4.52289C14.5049 3.75256 15.5311 4.26163 15.1641 5.21618L12.5397 12.3394L17.5059 12.3238C17.89 12.3226 18.1755 12.592 18.1767 12.9764C18.1773 13.1471 18.0926 13.3608 17.9366 13.5463L9.92841 23.6604C9.31894 24.4308 8.30701 23.9216 8.65981 22.9814L11.2984 15.8439L6.31797 15.8595C5.948 15.8607 5.64832 15.5912 5.64712 15.207Z" fill="#FFF500"/>
</g>
</g>
</svg>
