<svg width="25" height="32" viewBox="0 0 25 32" fill="none" xmlns="http://www.w3.org/2000/svg">
<g id="book.closed.fill">
<g id="Group">
<path id="Vector" d="M4.5502 31.4311L22.9778 31.3732C23.604 31.3713 24.1146 30.8716 24.1126 30.2313C24.111 29.7332 23.7682 29.2931 23.3124 29.138C21.5171 28.4322 21.1398 26.1138 22.8989 24.3296C23.4379 23.7872 24.0902 23.0879 24.0857 21.6649L24.0345 5.34326C24.0252 2.38345 22.5548 0.879686 19.6092 0.88893L4.49719 0.936353C1.55161 0.945596 0.0906262 2.44433 0.0999589 5.41837L0.167833 27.0477C0.177032 29.979 1.66153 31.4401 4.5502 31.4311ZM4.67107 29.1397C3.23386 29.1442 2.46304 28.3782 2.45879 27.0263C2.45478 25.7456 3.3629 24.9174 4.78587 24.913L19.3857 24.8672C19.5707 24.8666 19.7414 24.8518 19.8836 24.8228C19.2194 26.3049 19.3383 27.8699 20.0962 29.0913L4.67107 29.1397ZM4.22412 22.7517C3.783 22.7531 3.41186 22.3844 3.41043 21.929L3.35403 3.9567C3.3526 3.50135 3.72147 3.14444 4.16259 3.14305C4.60371 3.14167 4.98904 3.49621 4.99047 3.95157L5.04687 21.9239C5.0483 22.3793 4.66525 22.7503 4.22412 22.7517Z" fill="#FFF500"/>
</g>
</g>
</svg>
