<svg width="35" height="29" viewBox="0 0 35 29" fill="none" xmlns="http://www.w3.org/2000/svg">
<g id="crown.fill">
<g id="Group">
<path id="Vector" d="M6.23667 22.3838L6.63939 23.9915C7.14965 26.0816 8.25321 27.1508 10.4403 27.1439L24.7162 27.0991C26.9167 27.0922 28.0003 26.0429 28.5106 23.9228L28.9032 22.3127L6.23667 22.3838ZM5.79349 20.5483L29.3481 20.4744L31.8077 10.1426L30.7188 9.51588L24.6223 14.0401C24.1726 14.3633 23.8674 14.2436 23.6143 13.8824L17.834 5.1049L17.1976 5.08007L11.4196 13.9608C11.1954 14.3101 10.9306 14.4183 10.4789 14.0978L4.47365 9.69209L3.20219 10.0313L5.79349 20.5483ZM3.70168 12.9124C5.45138 12.9069 6.85193 11.4679 6.84634 9.68465C6.84087 7.94165 5.43127 6.49801 3.68157 6.5035C1.93188 6.50899 0.518057 7.94808 0.523568 9.70449C0.529164 11.4877 1.96523 12.9178 3.70168 12.9124ZM17.5228 7.29135C19.2591 7.2859 20.6729 5.84683 20.6674 4.077C20.6619 2.33398 19.2391 0.890402 17.5027 0.895851C15.7397 0.901383 14.3391 2.34043 14.3447 4.09684C14.3502 5.86667 15.773 7.29684 17.5228 7.29135ZM31.3655 12.8256C33.102 12.8201 34.529 11.381 34.5234 9.59779C34.5179 7.84138 33.0951 6.4112 31.3453 6.41669C29.609 6.42214 28.1952 7.87463 28.2007 9.61764C28.2063 11.4009 29.6291 12.831 31.3655 12.8256Z" fill="#FFF500"/>
</g>
</g>
</svg>
