<svg width="35" height="35" viewBox="0 0 35 35" fill="none" xmlns="http://www.w3.org/2000/svg">
<g id="Icon">
<rect width="34" height="34" transform="translate(0.552734 0.12793) rotate(-0.179797)" fill="white"/>
<path id="Vector (Stroke)" fill-rule="evenodd" clip-rule="evenodd" d="M9.50508 25.227C10.0046 25.7233 10.8118 25.7208 11.3082 25.2213L23.5431 12.9094L23.5734 22.5812C23.5756 23.2854 24.1482 23.8544 24.8524 23.8522C25.5566 23.85 26.1256 23.2774 26.1234 22.5732L26.0834 9.82329C26.0812 9.11913 25.5085 8.55009 24.8044 8.5523L12.0545 8.59231C11.3503 8.59452 10.7812 9.16715 10.7835 9.87131C10.7857 10.5755 11.3583 11.1445 12.0625 11.1423L21.7343 11.1119L9.49942 23.4238C9.00307 23.9233 9.0056 24.7306 9.50508 25.227Z" fill="#FF9500"/>
</g>
</svg>
