<svg width="35" height="34" viewBox="0 0 35 34" fill="none" xmlns="http://www.w3.org/2000/svg">
<g id="light.beacon.max.fill">
<g id="Group">
<path id="Vector" d="M28.2043 29.6627C28.8446 29.6607 29.3695 29.1469 29.3676 28.5206C29.3656 27.8804 28.8374 27.3555 28.1971 27.3575L26.461 27.363L26.4314 17.9286C26.4151 12.7347 22.4039 8.73441 17.2101 8.7507C12.0304 8.76696 8.04442 12.7923 8.06071 17.9863L8.09032 27.4206L6.32581 27.4261C5.69971 27.4281 5.20331 27.9562 5.20532 28.5965C5.20729 29.2227 5.70694 29.7333 6.33305 29.7313L28.2043 29.6627ZM18.4345 17.9963L18.4639 27.3881L16.1017 27.3955L16.0722 18.0037C16.0701 17.3492 16.5807 16.8068 17.2354 16.8047C17.8899 16.8027 18.4324 17.3418 18.4345 17.9963ZM4.34993 19.0224C5.01875 19.0203 5.60042 18.4635 5.59836 17.8089C5.59622 17.1259 5.01107 16.5728 4.34225 16.5749L1.61013 16.5835C0.955556 16.5855 0.402379 17.1564 0.404478 17.8252C0.406487 18.4656 0.963237 19.033 1.61781 19.031L4.34993 19.0224ZM7.23736 9.55042C7.70842 10.0185 8.49111 10.0303 8.95918 9.54501C9.44146 9.05969 9.42482 8.29131 8.95377 7.82321L7.02667 5.89397C6.5698 5.41159 5.77292 5.41409 5.29063 5.89942C4.82256 6.38471 4.82493 7.1389 5.29603 7.62123L7.23736 9.55042ZM15.9742 4.88403C15.9763 5.55283 16.533 6.12028 17.2018 6.11818C17.8849 6.11604 18.438 5.5451 18.4359 4.8763L18.4273 2.14417C18.4252 1.47537 17.8543 0.907966 17.1855 0.910065C16.5167 0.912163 15.9635 1.4831 15.9656 2.1519L15.9742 4.88403ZM25.4461 7.77146C24.978 8.24251 24.9662 9.01097 25.4515 9.49326C25.9511 9.97551 26.7053 9.95891 27.1734 9.48786L29.1168 7.54648C29.5849 7.0612 29.5825 6.30701 29.1114 5.82467C28.6118 5.34243 27.8576 5.34479 27.3896 5.83007L25.4461 7.77146ZM32.8524 18.933C33.5211 18.9309 34.0885 18.3599 34.0865 17.7195C34.0844 17.0507 33.5134 16.4834 32.8447 16.4855L30.1126 16.494C29.4579 16.4961 28.8904 17.0528 28.8926 17.7358C28.8946 18.3904 29.4656 18.9436 30.1202 18.9415L32.8524 18.933Z" fill="#FFF500"/>
</g>
</g>
</svg>
