<svg width="28" height="34" viewBox="0 0 28 34" fill="none" xmlns="http://www.w3.org/2000/svg">
<g id="medal.fill">
<g id="Group">
<path id="Vector" d="M13.7664 33.019C18.7753 33.0033 22.8039 28.9494 22.7882 23.9547C22.7725 18.9458 18.7186 14.9172 13.7097 14.9329C8.71498 14.9486 4.68639 19.0025 4.7021 24.0114C4.71778 29.0061 8.77174 33.0347 13.7664 33.019ZM11.1771 28.6443C10.6376 29.0444 10.0671 28.6336 10.2786 28.0068L11.2935 24.9441L8.66937 23.0883C8.17017 22.7198 8.3245 22.0221 9.00754 22.02L12.2236 22.0383L13.1958 18.9616C13.393 18.3349 14.076 18.3328 14.2772 18.9582L15.2688 22.0287L18.4846 21.9902C19.1676 21.9881 19.3121 22.6991 18.8294 23.0422L16.217 24.9286L17.2512 27.9849C17.4666 28.6103 16.8987 29.0247 16.3567 28.628L13.761 26.7436L11.1771 28.6443ZM5.05083 17.2369C6.43982 15.4679 8.35665 14.1244 10.5602 13.4628L4.07775 1.9L0.353207 7.61792C0.0982313 7.98869 0.0852964 8.40141 0.314135 8.77066L5.05083 17.2369ZM10.5023 8.61062L16.8915 8.59057L21.2075 0.892838L6.13809 0.940127L10.5023 8.61062ZM16.864 13.4431C19.086 14.0907 20.997 15.4223 22.397 17.1825L27.0946 8.68662C27.307 8.31598 27.2915 7.90335 27.0342 7.53419L23.2738 1.83976L16.864 13.4431Z" fill="#FFF500"/>
</g>
</g>
</svg>
