<svg width="35" height="24" viewBox="0 0 35 24" fill="none" xmlns="http://www.w3.org/2000/svg">
<g id="puzzlepiece.fill">
<rect width="34" height="23.0714" transform="translate(0.871094 0.373047) rotate(-0.179797)" fill="#FFF500" fill-opacity="0.18"/>
<g id="Group">
<path id="Vector" d="M0.907237 11.8908C0.914894 14.3307 2.6097 15.6649 4.51162 15.6589C5.30996 15.6564 5.908 15.4273 6.62273 14.9705C7.29061 14.5499 7.77275 14.7994 7.77459 15.3856L7.78848 19.8108C7.79587 22.167 9.02065 23.3711 11.3569 23.3638L14.4916 23.354C15.0551 23.3522 15.3002 22.873 14.8989 22.1926C14.4388 21.4644 14.2137 20.8552 14.2112 20.0418C14.2051 18.1043 15.5263 16.3779 17.9214 16.3704C20.3164 16.3628 21.6367 18.081 21.6428 20.0185C21.6454 20.8318 21.4242 21.4425 20.9803 22.1735C20.5834 22.8564 20.8196 23.3341 21.3949 23.3323L24.5296 23.3225C26.8659 23.3151 28.0831 22.1033 28.0757 19.7472L28.0618 15.3219C28.06 14.7358 28.5405 14.4832 29.1993 14.8997C29.9286 15.3519 30.5281 15.5773 31.3146 15.5748C33.2283 15.5688 34.9147 14.224 34.9071 11.7841C34.8994 9.3322 33.2046 7.99796 31.2909 8.00397C30.5043 8.00644 29.9062 8.23556 29.1798 8.69234C28.5236 9.11301 28.0416 8.86335 28.0397 8.2773L28.0258 3.85202C28.0185 1.50781 26.7936 0.2917 24.4573 0.299032L21.3227 0.308868C20.7473 0.310674 20.5141 0.80178 20.9154 1.48226C21.3638 2.21043 21.5888 2.81971 21.5914 3.633C21.5975 5.57056 20.288 7.29696 17.893 7.30447C15.4979 7.31199 14.1659 5.59388 14.1598 3.65632C14.1572 2.84303 14.3784 2.23235 14.834 1.50135C15.231 0.818359 14.9829 0.328763 14.4193 0.330532L11.2847 0.340368C8.9484 0.3477 7.73124 1.57147 7.7386 3.91568L7.75248 8.34096C7.75432 8.92701 7.27376 9.17969 6.60325 8.76318C5.88567 8.31094 5.2862 8.08557 4.48787 8.08808C2.58594 8.09405 0.899543 9.4389 0.907237 11.8908Z" fill="#FFF500"/>
</g>
</g>
</svg>
