<svg width="34" height="24" viewBox="0 0 34 24" fill="none" xmlns="http://www.w3.org/2000/svg">
<g id="theatermasks.fill">
<g id="Group">
<path id="Vector" d="M12.397 19.7254C17.2113 18.3841 19.2616 14.5688 17.8869 9.43818L16.0373 2.46438C15.533 0.59145 14.3189 -0.082757 12.4537 0.421638L2.77618 3.07434C0.901258 3.5987 0.211079 4.79737 0.715546 6.71018L2.55533 13.674C3.91041 18.7948 7.58269 21.0566 12.397 19.7254ZM11.4671 16.1587C9.42603 16.7036 7.43977 16.0019 6.38866 14.3101C6.18244 14.0017 6.3574 13.692 6.74845 13.7207C8.04869 13.8263 9.59224 13.5921 10.7054 13.2796C11.7992 12.9869 13.2243 12.4041 14.3068 11.633C14.6286 11.3927 14.9517 11.5611 14.9334 11.97C14.8713 13.9644 13.5177 15.574 11.4671 16.1587ZM6.52057 9.62343C5.78819 9.83504 5.69202 10.3339 5.37941 10.3848C5.2329 10.4151 5.05644 10.2462 4.96757 9.95733C4.73034 9.11055 5.25528 8.20153 6.09516 7.98951C6.94482 7.77746 7.81627 8.28323 8.03386 9.10018C8.12276 9.39897 8.04529 9.6286 7.8891 9.68891C7.52788 9.81962 7.18461 9.44182 6.52057 9.62343ZM12.4773 7.95951C11.745 8.18117 11.6488 8.67004 11.3361 8.71091C11.1897 8.74128 11.0132 8.57233 10.9244 8.29342C10.6872 7.45662 11.2121 6.53765 12.0519 6.32563C12.9113 6.09361 13.773 6.60939 13.9906 7.43629C14.0796 7.7451 14.0021 7.9647 13.8459 8.02501C13.4945 8.15574 13.1414 7.76799 12.4773 7.95951ZM31.3138 5.56723L21.6295 2.95535C19.9078 2.49212 18.6975 3.0144 18.2039 4.5714L18.088 5.00051L19.176 9.08512C20.2638 13.1598 19.3951 16.6125 16.9 18.8537C17.8629 20.466 19.5673 21.6671 21.8172 22.2682C26.6202 23.5594 30.2587 21.2746 31.5914 16.1454L33.4167 9.18006C33.8995 7.29404 33.1919 6.06985 31.3138 5.56723ZM21.4808 11.6404C20.8059 11.473 20.403 10.7763 20.5865 10.0678C20.77 9.37928 21.4529 8.9683 22.1278 9.15567C22.8028 9.34295 23.2058 10.0497 23.0321 10.7381C22.8485 11.4267 22.1656 11.8277 21.4808 11.6404ZM27.2229 13.1878C26.5577 13.0104 26.1548 12.3037 26.3383 11.6052C26.512 10.9167 27.195 10.5158 27.87 10.703C28.5547 10.8704 28.9478 11.5771 28.7741 12.2756C28.5905 12.9642 27.9077 13.3751 27.2229 13.1878ZM23.1202 17.0295C22.1029 16.7435 21.1254 16.7366 19.8753 17.0197C19.4846 17.1107 19.249 16.7824 19.4532 16.4527C20.2895 15.104 21.9884 14.5403 23.6416 15.0038C25.3534 15.4371 26.5206 16.7695 26.5843 18.3647C26.6051 18.7635 26.244 18.9341 25.9499 18.6658C24.9796 17.7715 24.1473 17.2955 23.1202 17.0295Z" fill="#FFF500"/>
</g>
</g>
</svg>
